<svg width="351" height="244" viewBox="0 0 351 244" fill="none" xmlns="http://www.w3.org/2000/svg">
<path d="M0 12.9701C0 5.80691 5.80691 0 12.9701 0H337.03C344.193 0 350 5.80691 350 12.9701V231.03C350 238.193 344.193 244 337.03 244H12.9701C5.8069 244 0 238.193 0 231.03V12.9701Z" fill="#14113A"/>
<g clip-path="url(#clip0_2054_3850)">
<rect width="350.193" height="244" rx="14" fill="white"/>
<path d="M74.1709 185.635V86.7383" stroke="#DFE0E3" stroke-width="0.810631" stroke-dasharray="3.24 2.43"/>
<path d="M141.456 185.635V86.7383" stroke="#DFE0E3" stroke-width="0.810631" stroke-dasharray="3.24 2.43"/>
<path d="M199.819 185.635V86.7383" stroke="#DFE0E3" stroke-width="0.810631" stroke-dasharray="3.24 2.43"/>
<path d="M258.187 185.635V86.7383" stroke="#DFE0E3" stroke-width="0.810631" stroke-dasharray="3.24 2.43"/>
<path d="M316.554 185.635V86.7383" stroke="#DFE0E3" stroke-width="0.810631" stroke-dasharray="3.24 2.43"/>
<g clip-path="url(#clip1_2054_3850)">
<path d="M73.7695 85.9297H148.348C149.243 85.9297 149.969 86.6556 149.969 87.5509V90.7935C149.969 91.6889 149.243 92.4147 148.348 92.4147H73.7695V85.9297Z" fill="#025BCF"/>
<path d="M73.7695 95.6582H132.135C133.03 95.6582 133.756 96.3841 133.756 97.2795V100.522C133.756 101.417 133.03 102.143 132.135 102.143H73.7695V95.6582Z" fill="#EBECF0"/>
<path d="M29.6975 93.1076V101.361H28.698V94.1555H28.6497L26.6346 95.4935V94.4779L28.698 93.1076H29.6975ZM34.8601 101.474C34.3281 101.474 33.8539 101.383 33.4374 101.2C33.0237 101.017 32.6946 100.764 32.4501 100.438C32.2083 100.111 32.0766 99.7305 32.0551 99.2979H33.0707C33.0922 99.5639 33.1835 99.7936 33.3447 99.9871C33.506 100.178 33.7169 100.326 33.9775 100.43C34.2381 100.535 34.5269 100.588 34.844 100.588C35.1986 100.588 35.513 100.526 35.787 100.402C36.0611 100.279 36.276 100.107 36.4318 99.8863C36.5877 99.666 36.6656 99.4107 36.6656 99.1206C36.6656 98.817 36.5903 98.5496 36.4399 98.3186C36.2894 98.0848 36.0691 97.9021 35.7789 97.7705C35.4888 97.6388 35.1341 97.573 34.715 97.573H34.0541V96.6864H34.715C35.0428 96.6864 35.3303 96.6273 35.5774 96.5091C35.8273 96.3908 36.0221 96.2243 36.1618 96.0093C36.3042 95.7944 36.3754 95.5418 36.3754 95.2517C36.3754 94.9722 36.3136 94.7291 36.19 94.5222C36.0664 94.3153 35.8918 94.1541 35.6661 94.0386C35.4431 93.9231 35.1798 93.8653 34.8762 93.8653C34.5914 93.8653 34.3227 93.9177 34.0702 94.0225C33.8203 94.1246 33.6161 94.2737 33.4576 94.4698C33.2991 94.6633 33.2131 94.897 33.1997 95.1711H32.2324C32.2486 94.7385 32.3789 94.3597 32.6234 94.0346C32.8679 93.7068 33.1876 93.4515 33.5825 93.2688C33.9802 93.0861 34.4168 92.9948 34.8923 92.9948C35.4028 92.9948 35.8407 93.0982 36.2061 93.3051C36.5715 93.5093 36.8523 93.7793 37.0484 94.1152C37.2446 94.451 37.3426 94.8137 37.3426 95.2033C37.3426 95.6681 37.2204 96.0644 36.9759 96.3922C36.7341 96.72 36.405 96.947 35.9885 97.0733V97.1378C36.5097 97.2237 36.9168 97.4454 37.2096 97.8027C37.5025 98.1574 37.6489 98.5967 37.6489 99.1206C37.6489 99.5693 37.5267 99.9723 37.2822 100.33C37.0404 100.684 36.7099 100.964 36.2908 101.168C35.8716 101.372 35.3947 101.474 34.8601 101.474ZM42.8599 96.7912V97.6778H39.2489V96.7912H42.8599ZM47.419 93.1076V101.361H46.4195V94.1555H46.3711L44.3561 95.4935V94.4779L46.4195 93.1076H47.419ZM50.0506 101.361L53.7422 94.0587V93.9943H49.4864V93.1076H54.7739V94.0426L51.0985 101.361H50.0506Z" fill="#838A93"/>
</g>
<g clip-path="url(#clip2_2054_3850)">
<path d="M73.7695 121.596H310.474C311.369 121.596 312.095 122.322 312.095 123.217V126.459C312.095 127.355 311.369 128.081 310.474 128.081H73.7695V121.596Z" fill="#025BCF"/>
<path d="M73.7695 131.324H253.73C254.625 131.324 255.351 132.05 255.351 132.945V136.188C255.351 137.083 254.625 137.809 253.73 137.809H73.7695V131.324Z" fill="#EBECF0"/>
<path d="M29.6975 128.774V137.027H28.698V129.821H28.6497L26.6346 131.159V130.144L28.698 128.774H29.6975ZM34.715 137.14C34.1615 137.14 33.6725 137.042 33.248 136.846C32.8262 136.647 32.4971 136.374 32.2606 136.028C32.0242 135.679 31.9073 135.281 31.91 134.835C31.9073 134.486 31.9758 134.163 32.1156 133.868C32.2553 133.569 32.446 133.321 32.6878 133.122C32.9323 132.921 33.205 132.793 33.506 132.739V132.691C33.111 132.589 32.7967 132.367 32.5629 132.026C32.3292 131.682 32.2136 131.291 32.2163 130.853C32.2136 130.434 32.3198 130.059 32.5347 129.729C32.7496 129.398 33.0452 129.138 33.4213 128.947C33.8002 128.756 34.2314 128.661 34.715 128.661C35.1932 128.661 35.6204 128.756 35.9966 128.947C36.3727 129.138 36.6683 129.398 36.8832 129.729C37.1008 130.059 37.211 130.434 37.2137 130.853C37.211 131.291 37.0914 131.682 36.855 132.026C36.6212 132.367 36.3109 132.589 35.924 132.691V132.739C36.2223 132.793 36.4909 132.921 36.7301 133.122C36.9692 133.321 37.1599 133.569 37.3023 133.868C37.4447 134.163 37.5173 134.486 37.52 134.835C37.5173 135.281 37.3964 135.679 37.1572 136.028C36.9208 136.374 36.5917 136.647 36.1699 136.846C35.7507 137.042 35.2658 137.14 34.715 137.14ZM34.715 136.254C35.0885 136.254 35.4109 136.193 35.6822 136.072C35.9536 135.951 36.1632 135.781 36.3109 135.56C36.4587 135.34 36.5339 135.082 36.5366 134.787C36.5339 134.475 36.4533 134.2 36.2948 133.96C36.1363 133.721 35.92 133.533 35.646 133.396C35.3746 133.259 35.0643 133.191 34.715 133.191C34.363 133.191 34.0487 133.259 33.7719 133.396C33.4979 133.533 33.2816 133.721 33.1231 133.96C32.9673 134.2 32.8907 134.475 32.8934 134.787C32.8907 135.082 32.9619 135.34 33.107 135.56C33.2547 135.781 33.4657 135.951 33.7397 136.072C34.0138 136.193 34.3388 136.254 34.715 136.254ZM34.715 132.336C35.0105 132.336 35.2725 132.277 35.5009 132.159C35.7319 132.041 35.9133 131.875 36.0449 131.663C36.1766 131.451 36.2438 131.202 36.2464 130.918C36.2438 130.638 36.1779 130.395 36.049 130.188C35.92 129.979 35.7413 129.817 35.513 129.705C35.2846 129.589 35.0186 129.531 34.715 129.531C34.406 129.531 34.136 129.589 33.9049 129.705C33.6739 129.817 33.4952 129.979 33.3689 130.188C33.2427 130.395 33.1809 130.638 33.1835 130.918C33.1809 131.202 33.244 131.451 33.373 131.663C33.5046 131.875 33.686 132.041 33.917 132.159C34.1481 132.277 34.4141 132.336 34.715 132.336ZM42.6271 132.457V133.344H39.0161V132.457H42.6271ZM43.8966 137.027V136.302L46.621 133.32C46.9407 132.97 47.204 132.667 47.4109 132.409C47.6178 132.148 47.7709 131.904 47.8703 131.675C47.9724 131.444 48.0235 131.202 48.0235 130.95C48.0235 130.66 47.9536 130.409 47.8139 130.196C47.6769 129.984 47.4888 129.82 47.2497 129.705C47.0106 129.589 46.7419 129.531 46.4437 129.531C46.1266 129.531 45.8499 129.597 45.6135 129.729C45.3797 129.858 45.1984 130.039 45.0694 130.273C44.9431 130.507 44.88 130.781 44.88 131.095H43.9289C43.9289 130.611 44.0404 130.187 44.2634 129.821C44.4864 129.456 44.79 129.171 45.1742 128.967C45.5611 128.763 45.995 128.661 46.4759 128.661C46.9595 128.661 47.3881 128.763 47.7615 128.967C48.135 129.171 48.4278 129.447 48.6401 129.793C48.8523 130.14 48.9585 130.525 48.9585 130.95C48.9585 131.254 48.9034 131.55 48.7932 131.841C48.6858 132.128 48.4977 132.449 48.229 132.804C47.963 133.156 47.5936 133.586 47.1207 134.093L45.2669 136.076V136.141H49.1036V137.027H43.8966ZM50.3972 135.335V134.513L54.0243 128.774H54.6208V130.047H54.2178L51.4773 134.384V134.448H56.3618V135.335H50.3972ZM54.2823 137.027V135.085V134.702V128.774H55.2334V137.027H54.2823Z" fill="#838A93"/>
</g>
<g clip-path="url(#clip3_2054_3850)">
<path d="M73.7695 157.264H213.198C214.094 157.264 214.819 157.99 214.819 158.885V162.127C214.819 163.023 214.094 163.749 213.198 163.749H73.7695V157.264Z" fill="#025BCF"/>
<path d="M73.7695 166.992H156.454C157.349 166.992 158.075 167.718 158.075 168.613V171.856C158.075 172.751 157.349 173.477 156.454 173.477H73.7695V166.992Z" fill="#EBECF0"/>
<path d="M26.7958 172.695V171.97L29.5202 168.988C29.8399 168.638 30.1032 168.335 30.3101 168.077C30.5169 167.816 30.6701 167.572 30.7695 167.343C30.8716 167.112 30.9226 166.87 30.9226 166.618C30.9226 166.328 30.8528 166.077 30.7131 165.864C30.5761 165.652 30.388 165.488 30.1489 165.373C29.9097 165.257 29.6411 165.199 29.3428 165.199C29.0258 165.199 28.7491 165.265 28.5126 165.397C28.2789 165.526 28.0975 165.707 27.9686 165.941C27.8423 166.175 27.7791 166.449 27.7791 166.763H26.828C26.828 166.279 26.9395 165.855 27.1625 165.489C27.3855 165.124 27.6891 164.839 28.0733 164.635C28.4602 164.431 28.8941 164.329 29.3751 164.329C29.8587 164.329 30.2872 164.431 30.6607 164.635C31.0341 164.839 31.327 165.115 31.5393 165.461C31.7515 165.808 31.8576 166.193 31.8576 166.618C31.8576 166.921 31.8026 167.218 31.6924 167.509C31.5849 167.796 31.3969 168.117 31.1282 168.472C30.8622 168.824 30.4928 169.254 30.0199 169.761L28.166 171.744V171.809H32.0027V172.695H26.7958ZM36.2464 172.808C35.7736 172.808 35.3477 172.714 34.9689 172.526C34.5901 172.338 34.2865 172.08 34.0581 171.752C33.8297 171.424 33.7048 171.051 33.6833 170.632H34.6505C34.6881 171.005 34.8574 171.314 35.1583 171.559C35.4619 171.801 35.8246 171.922 36.2464 171.922C36.585 171.922 36.8859 171.842 37.1492 171.684C37.4152 171.525 37.6234 171.308 37.7739 171.031C37.927 170.751 38.0036 170.436 38.0036 170.084C38.0036 169.724 37.9243 169.403 37.7658 169.121C37.61 168.836 37.395 168.611 37.121 168.448C36.8469 168.284 36.5339 168.2 36.182 168.198C35.9294 168.195 35.6701 168.234 35.4041 168.315C35.1382 168.392 34.9192 168.493 34.7472 168.617L33.8122 168.504L34.312 164.442H38.6V165.328H35.1502L34.8601 167.762H34.9084C35.0777 167.628 35.29 167.517 35.5452 167.428C35.8004 167.339 36.0664 167.295 36.3432 167.295C36.8483 167.295 37.2983 167.416 37.6933 167.658C38.0909 167.897 38.4026 168.225 38.6282 168.641C38.8566 169.057 38.9708 169.533 38.9708 170.068C38.9708 170.594 38.8526 171.064 38.6162 171.478C38.3824 171.889 38.06 172.214 37.6489 172.454C37.2379 172.69 36.7704 172.808 36.2464 172.808ZM44.1344 168.125V169.012H40.5234V168.125H44.1344ZM45.5983 171.003V170.181L49.2255 164.442H49.8219V165.715H49.4189L46.6784 170.052V170.116H51.5629V171.003H45.5983ZM49.4834 172.695V170.753V170.37V164.442H50.4345V172.695H49.4834ZM55.7654 172.808C55.1581 172.808 54.6409 172.643 54.2138 172.312C53.7866 171.979 53.4601 171.497 53.2344 170.866C53.0087 170.232 52.8959 169.466 52.8959 168.568C52.8959 167.676 53.0087 166.915 53.2344 166.283C53.4628 165.649 53.7906 165.166 54.2178 164.833C54.6477 164.497 55.1635 164.329 55.7654 164.329C56.3672 164.329 56.8817 164.497 57.3089 164.833C57.7388 165.166 58.0666 165.649 58.2922 166.283C58.5206 166.915 58.6348 167.676 58.6348 168.568C58.6348 169.466 58.522 170.232 58.2963 170.866C58.0706 171.497 57.7441 171.979 57.3169 172.312C56.8898 172.643 56.3726 172.808 55.7654 172.808ZM55.7654 171.922C56.3672 171.922 56.8347 171.631 57.1678 171.051C57.501 170.471 57.6676 169.643 57.6676 168.568C57.6676 167.854 57.591 167.245 57.4379 166.743C57.2874 166.24 57.0698 165.858 56.785 165.594C56.5029 165.331 56.163 165.199 55.7654 165.199C55.1689 165.199 54.7027 165.493 54.3669 166.082C54.0311 166.668 53.8631 167.496 53.8631 168.568C53.8631 169.283 53.9384 169.89 54.0888 170.39C54.2393 170.89 54.4556 171.27 54.7377 171.531C55.0225 171.791 55.365 171.922 55.7654 171.922Z" fill="#838A93"/>
</g>
<path d="M68.9481 205.119V204.394L71.6725 201.411C71.9922 201.062 72.2555 200.759 72.4624 200.501C72.6693 200.24 72.8224 199.996 72.9218 199.767C73.0239 199.536 73.075 199.294 73.075 199.042C73.075 198.752 73.0051 198.5 72.8654 198.288C72.7284 198.076 72.5403 197.912 72.3012 197.796C72.0621 197.681 71.7934 197.623 71.4952 197.623C71.1781 197.623 70.9014 197.689 70.665 197.821C70.4312 197.95 70.2499 198.131 70.1209 198.365C69.9946 198.598 69.9315 198.872 69.9315 199.187H68.9804C68.9804 198.703 69.0919 198.279 69.3149 197.913C69.5379 197.548 69.8415 197.263 70.2257 197.059C70.6126 196.855 71.0465 196.753 71.5274 196.753C72.011 196.753 72.4396 196.855 72.813 197.059C73.1865 197.263 73.4793 197.538 73.6916 197.885C73.9038 198.232 74.01 198.617 74.01 199.042C74.01 199.345 73.9549 199.642 73.8447 199.932C73.7373 200.22 73.5492 200.541 73.2805 200.896C73.0145 201.248 72.6451 201.677 72.1722 202.185L70.3184 204.168V204.233H74.1551V205.119H68.9481ZM78.5116 205.232C77.9044 205.232 77.3872 205.067 76.96 204.736C76.5328 204.403 76.2064 203.921 75.9807 203.289C75.755 202.655 75.6422 201.89 75.6422 200.992C75.6422 200.1 75.755 199.339 75.9807 198.707C76.2091 198.073 76.5369 197.59 76.9641 197.256C77.3939 196.921 77.9098 196.753 78.5116 196.753C79.1135 196.753 79.628 196.921 80.0552 197.256C80.485 197.59 80.8128 198.073 81.0385 198.707C81.2669 199.339 81.3811 200.1 81.3811 200.992C81.3811 201.89 81.2682 202.655 81.0425 203.289C80.8169 203.921 80.4904 204.403 80.0632 204.736C79.636 205.067 79.1188 205.232 78.5116 205.232ZM78.5116 204.345C79.1135 204.345 79.581 204.055 79.9141 203.475C80.2473 202.895 80.4138 202.067 80.4138 200.992C80.4138 200.278 80.3373 199.669 80.1841 199.167C80.0337 198.664 79.816 198.281 79.5312 198.018C79.2491 197.755 78.9093 197.623 78.5116 197.623C77.9152 197.623 77.449 197.917 77.1132 198.506C76.7773 199.091 76.6094 199.92 76.6094 200.992C76.6094 201.707 76.6846 202.314 76.8351 202.814C76.9856 203.314 77.2018 203.694 77.4839 203.954C77.7687 204.215 78.1113 204.345 78.5116 204.345Z" fill="#838A93"/>
<path d="M136.036 203.426V202.604L139.663 196.865H140.26V198.139H139.857L137.116 202.475V202.54H142.001V203.426H136.036ZM139.921 205.119V203.177V202.794V196.865H140.872V205.119H139.921ZM146.203 205.232C145.596 205.232 145.079 205.067 144.651 204.736C144.224 204.403 143.898 203.921 143.672 203.289C143.446 202.655 143.333 201.89 143.333 200.992C143.333 200.1 143.446 199.339 143.672 198.707C143.9 198.073 144.228 197.59 144.655 197.256C145.085 196.921 145.601 196.753 146.203 196.753C146.805 196.753 147.319 196.921 147.746 197.256C148.176 197.59 148.504 198.073 148.73 198.707C148.958 199.339 149.072 200.1 149.072 200.992C149.072 201.89 148.96 202.655 148.734 203.289C148.508 203.921 148.182 204.403 147.755 204.736C147.327 205.067 146.81 205.232 146.203 205.232ZM146.203 204.345C146.805 204.345 147.272 204.055 147.605 203.475C147.939 202.895 148.105 202.067 148.105 200.992C148.105 200.278 148.029 199.669 147.875 199.167C147.725 198.664 147.507 198.281 147.223 198.018C146.94 197.755 146.601 197.623 146.203 197.623C145.606 197.623 145.14 197.917 144.804 198.506C144.469 199.091 144.301 199.92 144.301 200.992C144.301 201.707 144.376 202.314 144.526 202.814C144.677 203.314 144.893 203.694 145.175 203.954C145.46 204.215 145.803 204.345 146.203 204.345Z" fill="#838A93"/>
<path d="M197.337 205.232C196.999 205.227 196.66 205.162 196.321 205.039C195.983 204.915 195.674 204.707 195.395 204.414C195.115 204.118 194.891 203.719 194.722 203.217C194.552 202.712 194.468 202.078 194.468 201.315C194.468 200.584 194.536 199.936 194.673 199.372C194.81 198.805 195.009 198.328 195.27 197.941C195.53 197.552 195.845 197.256 196.213 197.055C196.583 196.853 197.001 196.753 197.466 196.753C197.928 196.753 198.339 196.845 198.699 197.031C199.062 197.213 199.357 197.469 199.586 197.796C199.814 198.124 199.962 198.502 200.029 198.929H199.046C198.954 198.558 198.777 198.25 198.514 198.006C198.251 197.761 197.901 197.639 197.466 197.639C196.827 197.639 196.323 197.917 195.955 198.473C195.589 199.03 195.405 199.81 195.403 200.815H195.467C195.618 200.587 195.796 200.392 196.003 200.231C196.213 200.067 196.444 199.94 196.696 199.852C196.949 199.763 197.216 199.719 197.498 199.719C197.971 199.719 198.404 199.837 198.796 200.073C199.188 200.307 199.503 200.631 199.739 201.045C199.975 201.456 200.094 201.927 200.094 202.459C200.094 202.97 199.979 203.437 199.751 203.862C199.523 204.284 199.202 204.619 198.788 204.869C198.377 205.116 197.893 205.237 197.337 205.232ZM197.337 204.345C197.676 204.345 197.979 204.261 198.248 204.091C198.519 203.922 198.733 203.695 198.889 203.41C199.047 203.126 199.126 202.809 199.126 202.459C199.126 202.118 199.05 201.808 198.897 201.528C198.746 201.246 198.538 201.022 198.272 200.855C198.009 200.689 197.708 200.605 197.369 200.605C197.114 200.605 196.876 200.656 196.656 200.759C196.436 200.858 196.242 200.995 196.076 201.17C195.912 201.344 195.783 201.544 195.689 201.77C195.595 201.993 195.548 202.228 195.548 202.475C195.548 202.803 195.624 203.109 195.777 203.394C195.933 203.679 196.145 203.909 196.414 204.083C196.686 204.258 196.993 204.345 197.337 204.345ZM204.371 205.232C203.763 205.232 203.246 205.067 202.819 204.736C202.392 204.403 202.065 203.921 201.84 203.289C201.614 202.655 201.501 201.89 201.501 200.992C201.501 200.1 201.614 199.339 201.84 198.707C202.068 198.073 202.396 197.59 202.823 197.256C203.253 196.921 203.769 196.753 204.371 196.753C204.972 196.753 205.487 196.921 205.914 197.256C206.344 197.59 206.672 198.073 206.898 198.707C207.126 199.339 207.24 200.1 207.24 200.992C207.24 201.89 207.127 202.655 206.902 203.289C206.676 203.921 206.349 204.403 205.922 204.736C205.495 205.067 204.978 205.232 204.371 205.232ZM204.371 204.345C204.972 204.345 205.44 204.055 205.773 203.475C206.106 202.895 206.273 202.067 206.273 200.992C206.273 200.278 206.196 199.669 206.043 199.167C205.893 198.664 205.675 198.281 205.39 198.018C205.108 197.755 204.768 197.623 204.371 197.623C203.774 197.623 203.308 197.917 202.972 198.506C202.636 199.091 202.468 199.92 202.468 200.992C202.468 201.707 202.544 202.314 202.694 202.814C202.845 203.314 203.061 203.694 203.343 203.954C203.628 204.215 203.97 204.345 204.371 204.345Z" fill="#838A93"/>
<path d="M255.608 205.232C255.054 205.232 254.565 205.134 254.141 204.938C253.719 204.739 253.39 204.466 253.153 204.12C252.917 203.77 252.8 203.373 252.803 202.927C252.8 202.577 252.868 202.255 253.008 201.96C253.148 201.661 253.339 201.413 253.58 201.214C253.825 201.012 254.098 200.885 254.398 200.831V200.783C254.004 200.681 253.689 200.459 253.455 200.118C253.222 199.774 253.106 199.383 253.109 198.945C253.106 198.526 253.212 198.151 253.427 197.821C253.642 197.49 253.938 197.229 254.314 197.039C254.693 196.848 255.124 196.753 255.608 196.753C256.086 196.753 256.513 196.848 256.889 197.039C257.265 197.229 257.561 197.49 257.776 197.821C257.993 198.151 258.104 198.526 258.106 198.945C258.104 199.383 257.984 199.774 257.748 200.118C257.514 200.459 257.203 200.681 256.817 200.783V200.831C257.115 200.885 257.383 201.012 257.623 201.214C257.862 201.413 258.052 201.661 258.195 201.96C258.337 202.255 258.41 202.577 258.412 202.927C258.41 203.373 258.289 203.77 258.05 204.12C257.813 204.466 257.484 204.739 257.062 204.938C256.643 205.134 256.158 205.232 255.608 205.232ZM255.608 204.345C255.981 204.345 256.303 204.285 256.575 204.164C256.846 204.043 257.056 203.872 257.203 203.652C257.351 203.432 257.426 203.174 257.429 202.878C257.426 202.567 257.346 202.291 257.187 202.052C257.029 201.813 256.813 201.625 256.538 201.488C256.267 201.351 255.957 201.282 255.608 201.282C255.256 201.282 254.941 201.351 254.664 201.488C254.39 201.625 254.174 201.813 254.016 202.052C253.86 202.291 253.783 202.567 253.786 202.878C253.783 203.174 253.854 203.432 254 203.652C254.147 203.872 254.358 204.043 254.632 204.164C254.906 204.285 255.231 204.345 255.608 204.345ZM255.608 200.428C255.903 200.428 256.165 200.369 256.393 200.251C256.624 200.133 256.806 199.967 256.937 199.755C257.069 199.543 257.136 199.294 257.139 199.009C257.136 198.73 257.07 198.487 256.941 198.28C256.813 198.07 256.634 197.909 256.405 197.796C256.177 197.681 255.911 197.623 255.608 197.623C255.299 197.623 255.029 197.681 254.797 197.796C254.566 197.909 254.388 198.07 254.261 198.28C254.135 198.487 254.073 198.73 254.076 199.009C254.073 199.294 254.137 199.543 254.265 199.755C254.397 199.967 254.578 200.133 254.81 200.251C255.041 200.369 255.307 200.428 255.608 200.428ZM262.649 205.232C262.042 205.232 261.525 205.067 261.098 204.736C260.67 204.403 260.344 203.921 260.118 203.289C259.893 202.655 259.78 201.89 259.78 200.992C259.78 200.1 259.893 199.339 260.118 198.707C260.347 198.073 260.674 197.59 261.102 197.256C261.531 196.921 262.047 196.753 262.649 196.753C263.251 196.753 263.766 196.921 264.193 197.256C264.623 197.59 264.95 198.073 265.176 198.707C265.404 199.339 265.519 200.1 265.519 200.992C265.519 201.89 265.406 202.655 265.18 203.289C264.954 203.921 264.628 204.403 264.201 204.736C263.774 205.067 263.256 205.232 262.649 205.232ZM262.649 204.345C263.251 204.345 263.718 204.055 264.052 203.475C264.385 202.895 264.551 202.067 264.551 200.992C264.551 200.278 264.475 199.669 264.322 199.167C264.171 198.664 263.954 198.281 263.669 198.018C263.387 197.755 263.047 197.623 262.649 197.623C262.053 197.623 261.587 197.917 261.251 198.506C260.915 199.091 260.747 199.92 260.747 200.992C260.747 201.707 260.822 202.314 260.973 202.814C261.123 203.314 261.339 203.694 261.621 203.954C261.906 204.215 262.249 204.345 262.649 204.345Z" fill="#838A93"/>
<path d="M308.553 196.865V205.119H307.553V197.913H307.505L305.49 199.251V198.236L307.553 196.865H308.553ZM313.619 205.232C313.012 205.232 312.494 205.067 312.067 204.736C311.64 204.403 311.314 203.921 311.088 203.289C310.862 202.655 310.749 201.89 310.749 200.992C310.749 200.1 310.862 199.339 311.088 198.707C311.316 198.073 311.644 197.59 312.071 197.256C312.501 196.921 313.017 196.753 313.619 196.753C314.221 196.753 314.735 196.921 315.162 197.256C315.592 197.59 315.92 198.073 316.146 198.707C316.374 199.339 316.488 200.1 316.488 200.992C316.488 201.89 316.375 202.655 316.15 203.289C315.924 203.921 315.598 204.403 315.17 204.736C314.743 205.067 314.226 205.232 313.619 205.232ZM313.619 204.345C314.221 204.345 314.688 204.055 315.021 203.475C315.354 202.895 315.521 202.067 315.521 200.992C315.521 200.278 315.444 199.669 315.291 199.167C315.141 198.664 314.923 198.281 314.638 198.018C314.356 197.755 314.016 197.623 313.619 197.623C313.022 197.623 312.556 197.917 312.22 198.506C311.885 199.091 311.717 199.92 311.717 200.992C311.717 201.707 311.792 202.314 311.942 202.814C312.093 203.314 312.309 203.694 312.591 203.954C312.876 204.215 313.218 204.345 313.619 204.345ZM320.712 205.232C320.105 205.232 319.587 205.067 319.16 204.736C318.733 204.403 318.407 203.921 318.181 203.289C317.955 202.655 317.842 201.89 317.842 200.992C317.842 200.1 317.955 199.339 318.181 198.707C318.409 198.073 318.737 197.59 319.164 197.256C319.594 196.921 320.11 196.753 320.712 196.753C321.314 196.753 321.828 196.921 322.255 197.256C322.685 197.59 323.013 198.073 323.239 198.707C323.467 199.339 323.581 200.1 323.581 200.992C323.581 201.89 323.468 202.655 323.243 203.289C323.017 203.921 322.691 204.403 322.263 204.736C321.836 205.067 321.319 205.232 320.712 205.232ZM320.712 204.345C321.314 204.345 321.781 204.055 322.114 203.475C322.447 202.895 322.614 202.067 322.614 200.992C322.614 200.278 322.537 199.669 322.384 199.167C322.234 198.664 322.016 198.281 321.731 198.018C321.449 197.755 321.109 197.623 320.712 197.623C320.115 197.623 319.649 197.917 319.313 198.506C318.978 199.091 318.81 199.92 318.81 200.992C318.81 201.707 318.885 202.314 319.035 202.814C319.186 203.314 319.402 203.694 319.684 203.954C319.969 204.215 320.312 204.345 320.712 204.345Z" fill="#838A93"/>
<path d="M26.9409 52.5744H28.1338L30.9388 59.4256H31.0355L33.8405 52.5744H35.0334V60.8281H34.0984V54.5572H34.0178L31.4385 60.8281H30.5358L27.9565 54.5572H27.8759V60.8281H26.9409V52.5744ZM38.73 60.9732C38.3377 60.9732 37.9817 60.8993 37.662 60.7516C37.3423 60.6011 37.0884 60.3848 36.9003 60.1027C36.7123 59.8179 36.6182 59.474 36.6182 59.071C36.6182 58.7163 36.6881 58.4289 36.8278 58.2085C36.9675 57.9855 37.1542 57.8109 37.388 57.6846C37.6217 57.5583 37.8796 57.4643 38.1618 57.4025C38.4466 57.338 38.7327 57.287 39.0202 57.2494C39.3963 57.201 39.7013 57.1647 39.935 57.1406C40.1714 57.1137 40.3434 57.0694 40.4509 57.0076C40.561 56.9458 40.6161 56.8383 40.6161 56.6852V56.6529C40.6161 56.2553 40.5073 55.9463 40.2897 55.726C40.0747 55.5057 39.7483 55.3955 39.3103 55.3955C38.8563 55.3955 38.5003 55.4949 38.2424 55.6937C37.9844 55.8926 37.8031 56.1048 37.6983 56.3305L36.7955 56.0081C36.9567 55.6319 37.1717 55.3391 37.4404 55.1295C37.7117 54.9173 38.0073 54.7695 38.327 54.6862C38.6494 54.6002 38.9664 54.5572 39.2781 54.5572C39.4769 54.5572 39.7053 54.5814 39.9632 54.6298C40.2238 54.6755 40.4751 54.7708 40.7169 54.9159C40.9614 55.061 41.1642 55.28 41.3254 55.5728C41.4866 55.8657 41.5672 56.258 41.5672 56.7496V60.8281H40.6161V59.9899H40.5677C40.5033 60.1242 40.3958 60.2679 40.2453 60.4211C40.0949 60.5742 39.8947 60.7045 39.6448 60.812C39.395 60.9195 39.09 60.9732 38.73 60.9732ZM38.8751 60.1188C39.2512 60.1188 39.5683 60.0449 39.8262 59.8972C40.0868 59.7494 40.2829 59.5586 40.4146 59.3249C40.5489 59.0911 40.6161 58.8453 40.6161 58.5874V57.7169C40.5758 57.7652 40.4871 57.8096 40.3501 57.8499C40.2158 57.8875 40.0599 57.9211 39.8826 57.9506C39.708 57.9775 39.5374 58.0017 39.3708 58.0232C39.2069 58.042 39.0739 58.0581 38.9718 58.0715C38.7246 58.1038 38.4936 58.1562 38.2786 58.2287C38.0664 58.2985 37.8944 58.4047 37.7628 58.5471C37.6338 58.6868 37.5693 58.8775 37.5693 59.1194C37.5693 59.4498 37.6916 59.6997 37.9361 59.869C38.1833 60.0355 38.4963 60.1188 38.8751 60.1188ZM43.3032 60.8281V54.6379H44.2221V55.5728H44.2865C44.3994 55.2666 44.6036 55.018 44.8991 54.8273C45.1947 54.6365 45.5278 54.5411 45.8986 54.5411C45.9684 54.5411 46.0558 54.5425 46.1606 54.5452C46.2653 54.5478 46.3446 54.5519 46.3983 54.5572V55.5245C46.3661 55.5164 46.2922 55.5043 46.1767 55.4882C46.0638 55.4694 45.9443 55.46 45.818 55.46C45.5171 55.46 45.2484 55.5231 45.012 55.6494C44.7782 55.773 44.5928 55.945 44.4558 56.1653C44.3215 56.3829 44.2543 56.6314 44.2543 56.9108V60.8281H43.3032ZM53.6032 52.5744V60.8281H52.6037V53.6223H52.5554L50.5403 54.9603V53.9447L52.6037 52.5744H53.6032ZM55.9769 60.8281V60.1027L58.7013 57.1204C59.021 56.7711 59.2843 56.4675 59.4912 56.2096C59.6981 55.949 59.8512 55.7045 59.9506 55.4761C60.0527 55.2451 60.1038 55.0032 60.1038 54.7507C60.1038 54.4605 60.0339 54.2093 59.8942 53.9971C59.7572 53.7848 59.5691 53.6209 59.33 53.5054C59.0909 53.3899 58.8222 53.3321 58.524 53.3321C58.2069 53.3321 57.9302 53.3979 57.6938 53.5296C57.46 53.6585 57.2787 53.8399 57.1497 54.0736C57.0234 54.3074 56.9603 54.5814 56.9603 54.8958H56.0092C56.0092 54.4122 56.1207 53.9877 56.3437 53.6223C56.5667 53.2569 56.8703 52.9721 57.2545 52.7679C57.6414 52.5637 58.0753 52.4616 58.5562 52.4616C59.0398 52.4616 59.4684 52.5637 59.8418 52.7679C60.2153 52.9721 60.5081 53.2475 60.7204 53.594C60.9326 53.9406 61.0388 54.3262 61.0388 54.7507C61.0388 55.0543 60.9837 55.3512 60.8735 55.6414C60.7661 55.9288 60.578 56.2499 60.3093 56.6046C60.0433 56.9565 59.6739 57.3864 59.201 57.8942L57.3472 59.877V59.9415H61.1839V60.8281H55.9769ZM69.6028 56.258V57.1446H65.9918V56.258H69.6028ZM74.9357 60.8281H73.8878L76.9185 52.5744H77.9502L80.9808 60.8281H79.933L77.4666 53.8802H77.4021L74.9357 60.8281ZM75.3226 57.604H79.5461V58.4907H75.3226V57.604ZM82.1375 63.1495V54.6379H83.0564V55.6212H83.1692C83.2391 55.5137 83.3358 55.3767 83.4594 55.2101C83.5857 55.0409 83.7657 54.8904 83.9994 54.7588C84.2358 54.6244 84.5556 54.5572 84.9586 54.5572C85.4798 54.5572 85.9392 54.6876 86.3369 54.9482C86.7345 55.2088 87.0448 55.5782 87.2678 56.0565C87.4908 56.5347 87.6023 57.0989 87.6023 57.7491C87.6023 58.4047 87.4908 58.9729 87.2678 59.4539C87.0448 59.9321 86.7359 60.3029 86.3409 60.5662C85.946 60.8268 85.4906 60.9571 84.9747 60.9571C84.5771 60.9571 84.2587 60.8913 84.0196 60.7596C83.7804 60.6253 83.5964 60.4735 83.4674 60.3042C83.3385 60.1323 83.2391 59.9899 83.1692 59.877H83.0886V63.1495H82.1375ZM83.0725 57.733C83.0725 58.2005 83.141 58.6129 83.278 58.9702C83.415 59.3249 83.6152 59.603 83.8785 59.8045C84.1418 60.0033 84.4642 60.1027 84.8457 60.1027C85.2434 60.1027 85.5752 59.9979 85.8412 59.7884C86.1099 59.5761 86.3114 59.2913 86.4457 58.934C86.5827 58.5739 86.6512 58.1736 86.6512 57.733C86.6512 57.2977 86.5841 56.9055 86.4497 56.5562C86.3181 56.2042 86.1179 55.9261 85.8492 55.722C85.5833 55.5151 85.2488 55.4116 84.8457 55.4116C84.4588 55.4116 84.1338 55.5097 83.8704 55.7058C83.6071 55.8993 83.4083 56.1706 83.274 56.5199C83.1397 56.8665 83.0725 57.2709 83.0725 57.733ZM89.0532 60.8281V54.6379H89.9721V55.5728H90.0365C90.1494 55.2666 90.3536 55.018 90.6491 54.8273C90.9447 54.6365 91.2778 54.5411 91.6486 54.5411C91.7184 54.5411 91.8058 54.5425 91.9105 54.5452C92.0153 54.5478 92.0946 54.5519 92.1483 54.5572V55.5245C92.1161 55.5164 92.0422 55.5043 91.9267 55.4882C91.8138 55.4694 91.6943 55.46 91.568 55.46C91.2671 55.46 90.9984 55.5231 90.762 55.6494C90.5282 55.773 90.3428 55.945 90.2058 56.1653C90.0715 56.3829 90.0043 56.6314 90.0043 56.9108V60.8281H89.0532ZM99.3532 52.5744V60.8281H98.3537V53.6223H98.3054L96.2903 54.9603V53.9447L98.3537 52.5744H99.3532ZM104.516 60.941C103.984 60.941 103.51 60.8496 103.093 60.6669C102.679 60.4842 102.35 60.2303 102.106 59.9052C101.864 59.5774 101.732 59.1973 101.711 58.7647H102.726C102.748 59.0307 102.839 59.2604 103 59.4539C103.162 59.6446 103.373 59.7924 103.633 59.8972C103.894 60.0019 104.183 60.0543 104.5 60.0543C104.854 60.0543 105.169 59.9925 105.443 59.869C105.717 59.7454 105.932 59.5734 106.088 59.3531C106.243 59.1328 106.321 58.8775 106.321 58.5874C106.321 58.2838 106.246 58.0164 106.096 57.7854C105.945 57.5516 105.725 57.3689 105.435 57.2373C105.144 57.1056 104.79 57.0398 104.371 57.0398H103.71V56.1532H104.371C104.698 56.1532 104.986 56.0941 105.233 55.9759C105.483 55.8576 105.678 55.6911 105.818 55.4761C105.96 55.2612 106.031 55.0086 106.031 54.7185C106.031 54.439 105.969 54.1959 105.846 53.989C105.722 53.7821 105.547 53.6209 105.322 53.5054C105.099 53.3899 104.836 53.3321 104.532 53.3321C104.247 53.3321 103.978 53.3845 103.726 53.4893C103.476 53.5914 103.272 53.7405 103.113 53.9366C102.955 54.1301 102.869 54.3638 102.855 54.6379H101.888C101.904 54.2053 102.035 53.8265 102.279 53.5014C102.524 53.1736 102.843 52.9183 103.238 52.7356C103.636 52.5529 104.072 52.4616 104.548 52.4616C105.059 52.4616 105.496 52.565 105.862 52.7719C106.227 52.9761 106.508 53.2461 106.704 53.582C106.9 53.9178 106.998 54.2805 106.998 54.6701C106.998 55.1349 106.876 55.5312 106.632 55.859C106.39 56.1868 106.061 56.4138 105.644 56.5401V56.6046C106.165 56.6905 106.572 56.9122 106.865 57.2695C107.158 57.6242 107.305 58.0635 107.305 58.5874C107.305 59.0361 107.182 59.4391 106.938 59.7964C106.696 60.1511 106.366 60.4305 105.946 60.6347C105.527 60.8389 105.05 60.941 104.516 60.941Z" fill="#838A93"/>
</g>
<path d="M27.0444 39.9395V29.7576H33.3583V31.0801H28.5806V34.1824H32.9059V35.4998H28.5806V39.9395H27.0444ZM35.4018 39.9395V32.3031H36.8883V39.9395H35.4018ZM36.1525 31.1248C35.894 31.1248 35.6719 31.0386 35.4863 30.8663C35.304 30.6906 35.2129 30.4818 35.2129 30.2399C35.2129 29.9946 35.304 29.7858 35.4863 29.6135C35.6719 29.4378 35.894 29.35 36.1525 29.35C36.411 29.35 36.6314 29.4378 36.8137 29.6135C36.9993 29.7858 37.0921 29.9946 37.0921 30.2399C37.0921 30.4818 36.9993 30.6906 36.8137 30.8663C36.6314 31.0386 36.411 31.1248 36.1525 31.1248ZM40.6482 35.4054V39.9395H39.1617V32.3031H40.5885V33.546H40.683C40.8587 33.1416 41.1338 32.8168 41.5083 32.5716C41.8861 32.3263 42.3617 32.2037 42.9351 32.2037C43.4555 32.2037 43.9112 32.313 44.3023 32.5318C44.6934 32.7472 44.9967 33.0687 45.2121 33.4963C45.4276 33.9238 45.5353 34.4525 45.5353 35.0822V39.9395H44.0488V35.2612C44.0488 34.7077 43.9046 34.2752 43.6162 33.9636C43.3279 33.6487 42.9318 33.4913 42.428 33.4913C42.0833 33.4913 41.7768 33.5659 41.5083 33.715C41.2431 33.8642 41.0327 34.0829 40.8769 34.3713C40.7244 34.6563 40.6482 35.001 40.6482 35.4054ZM50.0248 40.1085C49.5409 40.1085 49.1034 40.019 48.7123 39.84C48.3212 39.6577 48.0113 39.3942 47.7826 39.0495C47.5572 38.7048 47.4445 38.2823 47.4445 37.7818C47.4445 37.3509 47.5274 36.9963 47.6931 36.7179C47.8588 36.4395 48.0825 36.219 48.3643 36.0566C48.646 35.8942 48.9609 35.7716 49.3089 35.6887C49.6569 35.6059 50.0115 35.5429 50.3728 35.4998C50.8302 35.4468 51.2014 35.4037 51.4864 35.3706C51.7715 35.3341 51.9786 35.2761 52.1079 35.1966C52.2371 35.117 52.3018 34.9877 52.3018 34.8088V34.774C52.3018 34.3398 52.1791 34.0034 51.9339 33.7647C51.6919 33.5261 51.3306 33.4068 50.8501 33.4068C50.3496 33.4068 49.9552 33.5178 49.6668 33.7399C49.3818 33.9586 49.1846 34.2022 49.0752 34.4707L47.6782 34.1525C47.8439 33.6885 48.0859 33.314 48.404 33.0289C48.7255 32.7406 49.0951 32.5318 49.5127 32.4025C49.9303 32.2699 50.3695 32.2037 50.8302 32.2037C51.1351 32.2037 51.4583 32.2401 51.7996 32.313C52.1443 32.3826 52.4658 32.5119 52.7641 32.7008C53.0657 32.8897 53.3127 33.1599 53.5049 33.5112C53.6971 33.8592 53.7932 34.3116 53.7932 34.8684V39.9395H52.3415V38.8954H52.2819C52.1858 39.0877 52.0416 39.2766 51.8494 39.4622C51.6571 39.6478 51.4102 39.8019 51.1086 39.9245C50.807 40.0472 50.4457 40.1085 50.0248 40.1085ZM50.3479 38.9153C50.7589 38.9153 51.1102 38.8341 51.4019 38.6717C51.6969 38.5093 51.9206 38.2972 52.0731 38.0353C52.2288 37.7702 52.3067 37.4868 52.3067 37.1852V36.2008C52.2537 36.2538 52.151 36.3036 51.9985 36.35C51.8494 36.3931 51.6787 36.4312 51.4864 36.4643C51.2942 36.4941 51.1069 36.5223 50.9246 36.5488C50.7423 36.572 50.5899 36.5919 50.4672 36.6085C50.1789 36.6449 49.9154 36.7063 49.6768 36.7924C49.4414 36.8786 49.2525 37.0029 49.11 37.1653C48.9708 37.3244 48.9012 37.5365 48.9012 37.8017C48.9012 38.1696 49.0371 38.448 49.3089 38.6369C49.5806 38.8225 49.927 38.9153 50.3479 38.9153ZM57.5333 35.4054V39.9395H56.0468V32.3031H57.4736V33.546H57.5681C57.7437 33.1416 58.0188 32.8168 58.3934 32.5716C58.7712 32.3263 59.2468 32.2037 59.8202 32.2037C60.3406 32.2037 60.7963 32.313 61.1874 32.5318C61.5785 32.7472 61.8818 33.0687 62.0972 33.4963C62.3126 33.9238 62.4203 34.4525 62.4203 35.0822V39.9395H60.9338V35.2612C60.9338 34.7077 60.7897 34.2752 60.5013 33.9636C60.213 33.6487 59.8169 33.4913 59.3131 33.4913C58.9684 33.4913 58.6618 33.5659 58.3934 33.715C58.1282 33.8642 57.9177 34.0829 57.762 34.3713C57.6095 34.6563 57.5333 35.001 57.5333 35.4054ZM67.9042 40.0936C67.1651 40.0936 66.5287 39.9262 65.9951 39.5914C65.4648 39.2534 65.0571 38.7877 64.7721 38.1944C64.487 37.6011 64.3445 36.9217 64.3445 36.1561C64.3445 35.3805 64.4903 34.6961 64.782 34.1028C65.0737 33.5062 65.4847 33.0405 66.015 32.7058C66.5453 32.371 67.17 32.2037 67.8892 32.2037C68.4693 32.2037 68.9863 32.3114 69.4404 32.5268C69.8945 32.7389 70.2607 33.0372 70.5391 33.4217C70.8208 33.8062 70.9882 34.2553 71.0412 34.769H69.5945C69.515 34.411 69.3327 34.1028 69.0476 33.8443C68.7659 33.5858 68.3881 33.4565 67.9141 33.4565C67.4998 33.4565 67.1369 33.5659 66.8253 33.7846C66.5171 34.0001 66.2768 34.3083 66.1044 34.7093C65.9321 35.1071 65.8459 35.5777 65.8459 36.1213C65.8459 36.6781 65.9304 37.1587 66.0995 37.563C66.2685 37.9674 66.5071 38.2806 66.8154 38.5027C67.1269 38.7247 67.4932 38.8358 67.9141 38.8358C68.1958 38.8358 68.451 38.7844 68.6797 38.6816C68.9117 38.5756 69.1056 38.4248 69.2614 38.2292C69.4205 38.0337 69.5315 37.7984 69.5945 37.5233H71.0412C70.9882 38.0171 70.8275 38.4579 70.559 38.8457C70.2905 39.2335 69.9309 39.5384 69.4802 39.7605C69.0327 39.9825 68.5074 40.0936 67.9042 40.0936ZM72.9045 39.9395V32.3031H74.391V39.9395H72.9045ZM73.6552 31.1248C73.3967 31.1248 73.1746 31.0386 72.989 30.8663C72.8067 30.6906 72.7156 30.4818 72.7156 30.2399C72.7156 29.9946 72.8067 29.7858 72.989 29.6135C73.1746 29.4378 73.3967 29.35 73.6552 29.35C73.9137 29.35 74.1341 29.4378 74.3164 29.6135C74.502 29.7858 74.5948 29.9946 74.5948 30.2399C74.5948 30.4818 74.502 30.6906 74.3164 30.8663C74.1341 31.0386 73.9137 31.1248 73.6552 31.1248ZM78.8867 40.1085C78.4028 40.1085 77.9653 40.019 77.5742 39.84C77.1831 39.6577 76.8732 39.3942 76.6445 39.0495C76.4191 38.7048 76.3065 38.2823 76.3065 37.7818C76.3065 37.3509 76.3893 36.9963 76.555 36.7179C76.7207 36.4395 76.9445 36.219 77.2262 36.0566C77.5079 35.8942 77.8228 35.7716 78.1708 35.6887C78.5188 35.6059 78.8734 35.5429 79.2347 35.4998C79.6921 35.4468 80.0633 35.4037 80.3484 35.3706C80.6334 35.3341 80.8405 35.2761 80.9698 35.1966C81.0991 35.117 81.1637 34.9877 81.1637 34.8088V34.774C81.1637 34.3398 81.0411 34.0034 80.7958 33.7647C80.5538 33.5261 80.1926 33.4068 79.712 33.4068C79.2115 33.4068 78.8171 33.5178 78.5288 33.7399C78.2437 33.9586 78.0465 34.2022 77.9371 34.4707L76.5401 34.1525C76.7058 33.6885 76.9478 33.314 77.266 33.0289C77.5875 32.7406 77.957 32.5318 78.3746 32.4025C78.7922 32.2699 79.2314 32.2037 79.6921 32.2037C79.997 32.2037 80.3202 32.2401 80.6616 32.313C81.0063 32.3826 81.3278 32.5119 81.6261 32.7008C81.9277 32.8897 82.1746 33.1599 82.3668 33.5112C82.5591 33.8592 82.6552 34.3116 82.6552 34.8684V39.9395H81.2035V38.8954H81.1438C81.0477 39.0877 80.9035 39.2766 80.7113 39.4622C80.519 39.6478 80.2721 39.8019 79.9705 39.9245C79.6689 40.0472 79.3076 40.1085 78.8867 40.1085ZM79.2099 38.9153C79.6208 38.9153 79.9722 38.8341 80.2638 38.6717C80.5588 38.5093 80.7825 38.2972 80.935 38.0353C81.0908 37.7702 81.1687 37.4868 81.1687 37.1852V36.2008C81.1156 36.2538 81.0129 36.3036 80.8604 36.35C80.7113 36.3931 80.5406 36.4312 80.3484 36.4643C80.1561 36.4941 79.9689 36.5223 79.7866 36.5488C79.6043 36.572 79.4518 36.5919 79.3292 36.6085C79.0408 36.6449 78.7773 36.7063 78.5387 36.7924C78.3034 36.8786 78.1145 37.0029 77.9719 37.1653C77.8327 37.3244 77.7631 37.5365 77.7631 37.8017C77.7631 38.1696 77.899 38.448 78.1708 38.6369C78.4426 38.8225 78.7889 38.9153 79.2099 38.9153ZM86.3952 29.7576V39.9395H84.9087V29.7576H86.3952ZM92.7666 29.7576H94.6309L97.8724 37.6724H97.9917L101.233 29.7576H103.098V39.9395H101.636V32.5716H101.541L98.5386 39.9245H97.3255L94.3227 32.5666H94.2282V39.9395H92.7666V29.7576ZM107.708 40.1085C107.224 40.1085 106.786 40.019 106.395 39.84C106.004 39.6577 105.694 39.3942 105.465 39.0495C105.24 38.7048 105.127 38.2823 105.127 37.7818C105.127 37.3509 105.21 36.9963 105.376 36.7179C105.542 36.4395 105.765 36.219 106.047 36.0566C106.329 35.8942 106.644 35.7716 106.992 35.6887C107.34 35.6059 107.694 35.5429 108.056 35.4998C108.513 35.4468 108.884 35.4037 109.169 35.3706C109.454 35.3341 109.661 35.2761 109.791 35.1966C109.92 35.117 109.985 34.9877 109.985 34.8088V34.774C109.985 34.3398 109.862 34.0034 109.617 33.7647C109.375 33.5261 109.013 33.4068 108.533 33.4068C108.032 33.4068 107.638 33.5178 107.35 33.7399C107.065 33.9586 106.867 34.2022 106.758 34.4707L105.361 34.1525C105.527 33.6885 105.769 33.314 106.087 33.0289C106.408 32.7406 106.778 32.5318 107.196 32.4025C107.613 32.2699 108.052 32.2037 108.513 32.2037C108.818 32.2037 109.141 32.2401 109.482 32.313C109.827 32.3826 110.149 32.5119 110.447 32.7008C110.749 32.8897 110.996 33.1599 111.188 33.5112C111.38 33.8592 111.476 34.3116 111.476 34.8684V39.9395H110.024V38.8954H109.965C109.869 39.0877 109.724 39.2766 109.532 39.4622C109.34 39.6478 109.093 39.8019 108.791 39.9245C108.49 40.0472 108.129 40.1085 107.708 40.1085ZM108.031 38.9153C108.442 38.9153 108.793 38.8341 109.085 38.6717C109.38 38.5093 109.603 38.2972 109.756 38.0353C109.912 37.7702 109.99 37.4868 109.99 37.1852V36.2008C109.937 36.2538 109.834 36.3036 109.681 36.35C109.532 36.3931 109.362 36.4312 109.169 36.4643C108.977 36.4941 108.79 36.5223 108.607 36.5488C108.425 36.572 108.273 36.5919 108.15 36.6085C107.862 36.6449 107.598 36.7063 107.36 36.7924C107.124 36.8786 106.935 37.0029 106.793 37.1653C106.654 37.3244 106.584 37.5365 106.584 37.8017C106.584 38.1696 106.72 38.448 106.992 38.6369C107.263 38.8225 107.61 38.9153 108.031 38.9153ZM115.216 35.4054V39.9395H113.73V32.3031H115.156V33.546H115.251C115.427 33.1416 115.702 32.8168 116.076 32.5716C116.454 32.3263 116.93 32.2037 117.503 32.2037C118.023 32.2037 118.479 32.313 118.87 32.5318C119.261 32.7472 119.565 33.0687 119.78 33.4963C119.995 33.9238 120.103 34.4525 120.103 35.0822V39.9395H118.617V35.2612C118.617 34.7077 118.473 34.2752 118.184 33.9636C117.896 33.6487 117.5 33.4913 116.996 33.4913C116.651 33.4913 116.345 33.5659 116.076 33.715C115.811 33.8642 115.601 34.0829 115.445 34.3713C115.292 34.6563 115.216 35.001 115.216 35.4054ZM124.593 40.1085C124.109 40.1085 123.671 40.019 123.28 39.84C122.889 39.6577 122.579 39.3942 122.35 39.0495C122.125 38.7048 122.012 38.2823 122.012 37.7818C122.012 37.3509 122.095 36.9963 122.261 36.7179C122.427 36.4395 122.65 36.219 122.932 36.0566C123.214 35.8942 123.529 35.7716 123.877 35.6887C124.225 35.6059 124.579 35.5429 124.941 35.4998C125.398 35.4468 125.769 35.4037 126.054 35.3706C126.339 35.3341 126.547 35.2761 126.676 35.1966C126.805 35.117 126.87 34.9877 126.87 34.8088V34.774C126.87 34.3398 126.747 34.0034 126.502 33.7647C126.26 33.5261 125.899 33.4068 125.418 33.4068C124.917 33.4068 124.523 33.5178 124.235 33.7399C123.95 33.9586 123.752 34.2022 123.643 34.4707L122.246 34.1525C122.412 33.6885 122.654 33.314 122.972 33.0289C123.293 32.7406 123.663 32.5318 124.081 32.4025C124.498 32.2699 124.937 32.2037 125.398 32.2037C125.703 32.2037 126.026 32.2401 126.368 32.313C126.712 32.3826 127.034 32.5119 127.332 32.7008C127.634 32.8897 127.881 33.1599 128.073 33.5112C128.265 33.8592 128.361 34.3116 128.361 34.8684V39.9395H126.909V38.8954H126.85C126.754 39.0877 126.609 39.2766 126.417 39.4622C126.225 39.6478 125.978 39.8019 125.676 39.9245C125.375 40.0472 125.014 40.1085 124.593 40.1085ZM124.916 38.9153C125.327 38.9153 125.678 38.8341 125.97 38.6717C126.265 38.5093 126.489 38.2972 126.641 38.0353C126.797 37.7702 126.875 37.4868 126.875 37.1852V36.2008C126.822 36.2538 126.719 36.3036 126.566 36.35C126.417 36.3931 126.247 36.4312 126.054 36.4643C125.862 36.4941 125.675 36.5223 125.493 36.5488C125.31 36.572 125.158 36.5919 125.035 36.6085C124.747 36.6449 124.483 36.7063 124.245 36.7924C124.009 36.8786 123.82 37.0029 123.678 37.1653C123.539 37.3244 123.469 37.5365 123.469 37.8017C123.469 38.1696 123.605 38.448 123.877 38.6369C124.149 38.8225 124.495 38.9153 124.916 38.9153ZM133.816 42.9622C133.21 42.9622 132.688 42.8826 132.25 42.7235C131.816 42.5645 131.462 42.354 131.186 42.0922C130.911 41.8303 130.706 41.5436 130.57 41.2321L131.848 40.7051C131.937 40.8509 132.056 41.005 132.206 41.1674C132.358 41.3332 132.564 41.474 132.822 41.59C133.084 41.706 133.42 41.764 133.831 41.764C134.395 41.764 134.86 41.6265 135.228 41.3514C135.596 41.0796 135.78 40.6454 135.78 40.0488V38.5474H135.686C135.596 38.7098 135.467 38.8904 135.298 39.0893C135.132 39.2882 134.904 39.4605 134.612 39.6064C134.32 39.7522 133.941 39.8251 133.473 39.8251C132.87 39.8251 132.327 39.6842 131.843 39.4025C131.362 39.1175 130.981 38.6982 130.699 38.1447C130.421 37.5879 130.282 36.9035 130.282 36.0914C130.282 35.2794 130.419 34.5834 130.694 34.0034C130.973 33.4234 131.354 32.9792 131.838 32.671C132.322 32.3594 132.87 32.2037 133.483 32.2037C133.957 32.2037 134.34 32.2832 134.632 32.4423C134.923 32.5981 135.15 32.7804 135.313 32.9892C135.479 33.198 135.606 33.3819 135.696 33.541H135.805V32.3031H137.262V40.1085C137.262 40.7647 137.109 41.3033 136.804 41.7243C136.499 42.1452 136.087 42.4567 135.566 42.6589C135.049 42.8611 134.466 42.9622 133.816 42.9622ZM133.801 38.5922C134.229 38.5922 134.59 38.4927 134.885 38.2939C135.184 38.0917 135.409 37.8033 135.561 37.4288C135.717 37.051 135.795 36.5985 135.795 36.0716C135.795 35.5578 135.719 35.1054 135.566 34.7143C135.414 34.3232 135.19 34.0183 134.895 33.7995C134.6 33.5775 134.236 33.4664 133.801 33.4664C133.354 33.4664 132.981 33.5824 132.683 33.8145C132.385 34.0431 132.159 34.3547 132.007 34.7491C131.858 35.1435 131.783 35.5843 131.783 36.0716C131.783 36.572 131.859 37.0112 132.012 37.389C132.164 37.7669 132.39 38.0618 132.688 38.274C132.989 38.4861 133.361 38.5922 133.801 38.5922ZM142.82 40.0936C142.068 40.0936 141.42 39.9328 140.876 39.6113C140.336 39.2865 139.918 38.8308 139.623 38.2441C139.332 37.6542 139.186 36.9631 139.186 36.171C139.186 35.3888 139.332 34.6994 139.623 34.1028C139.918 33.5062 140.329 33.0405 140.856 32.7058C141.387 32.371 142.006 32.2037 142.716 32.2037C143.147 32.2037 143.564 32.2749 143.969 32.4174C144.373 32.56 144.736 32.7837 145.057 33.0886C145.379 33.3935 145.632 33.7896 145.818 34.2768C146.004 34.7607 146.096 35.349 146.096 36.0417V36.5687H140.026V35.4551H144.64C144.64 35.064 144.56 34.7176 144.401 34.416C144.242 34.1111 144.018 33.8708 143.73 33.6951C143.445 33.5195 143.11 33.4316 142.726 33.4316C142.308 33.4316 141.943 33.5344 141.632 33.7399C141.324 33.9421 141.085 34.2072 140.916 34.5353C140.75 34.8601 140.667 35.2131 140.667 35.5943V36.4643C140.667 36.9747 140.757 37.4089 140.936 37.7669C141.118 38.1248 141.372 38.3983 141.697 38.5872C142.021 38.7728 142.401 38.8656 142.835 38.8656C143.117 38.8656 143.374 38.8258 143.606 38.7463C143.838 38.6634 144.038 38.5408 144.207 38.3784C144.376 38.216 144.505 38.0154 144.595 37.7768L146.002 38.0304C145.889 38.4447 145.687 38.8076 145.395 39.1191C145.107 39.4274 144.744 39.6677 144.307 39.84C143.872 40.0091 143.377 40.0936 142.82 40.0936ZM148.019 39.9395V32.3031H149.446V33.546H149.541C149.7 33.1251 149.96 32.7969 150.321 32.5616C150.682 32.323 151.115 32.2037 151.619 32.2037C152.129 32.2037 152.557 32.323 152.901 32.5616C153.249 32.8002 153.506 33.1284 153.672 33.546H153.752C153.934 33.1383 154.224 32.8135 154.622 32.5716C155.019 32.3263 155.493 32.2037 156.043 32.2037C156.736 32.2037 157.301 32.4208 157.739 32.8549C158.18 33.2891 158.4 33.9437 158.4 34.8187V39.9395H156.913V34.9579C156.913 34.4409 156.773 34.0663 156.491 33.8343C156.209 33.6023 155.873 33.4863 155.482 33.4863C154.998 33.4863 154.622 33.6355 154.353 33.9338C154.085 34.2288 153.95 34.6083 153.95 35.0723V39.9395H152.469V34.8635C152.469 34.4492 152.34 34.1161 152.081 33.8642C151.823 33.6123 151.486 33.4863 151.072 33.4863C150.79 33.4863 150.53 33.5609 150.291 33.71C150.056 33.8559 149.865 34.0597 149.72 34.3216C149.577 34.5834 149.506 34.8867 149.506 35.2314V39.9395H148.019ZM163.957 40.0936C163.205 40.0936 162.557 39.9328 162.013 39.6113C161.473 39.2865 161.055 38.8308 160.76 38.2441C160.469 37.6542 160.323 36.9631 160.323 36.171C160.323 35.3888 160.469 34.6994 160.76 34.1028C161.055 33.5062 161.466 33.0405 161.993 32.7058C162.524 32.371 163.143 32.2037 163.853 32.2037C164.284 32.2037 164.701 32.2749 165.106 32.4174C165.51 32.56 165.873 32.7837 166.194 33.0886C166.516 33.3935 166.769 33.7896 166.955 34.2768C167.141 34.7607 167.233 35.349 167.233 36.0417V36.5687H161.163V35.4551H165.777C165.777 35.064 165.697 34.7176 165.538 34.416C165.379 34.1111 165.155 33.8708 164.867 33.6951C164.582 33.5195 164.247 33.4316 163.863 33.4316C163.445 33.4316 163.08 33.5344 162.769 33.7399C162.461 33.9421 162.222 34.2072 162.053 34.5353C161.887 34.8601 161.804 35.2131 161.804 35.5943V36.4643C161.804 36.9747 161.894 37.4089 162.073 37.7669C162.255 38.1248 162.509 38.3983 162.834 38.5872C163.158 38.7728 163.538 38.8656 163.972 38.8656C164.254 38.8656 164.511 38.8258 164.743 38.7463C164.975 38.6634 165.175 38.5408 165.344 38.3784C165.513 38.216 165.642 38.0154 165.732 37.7768L167.139 38.0304C167.026 38.4447 166.824 38.8076 166.532 39.1191C166.244 39.4274 165.881 39.6677 165.444 39.84C165.009 40.0091 164.514 40.0936 163.957 40.0936ZM170.643 35.4054V39.9395H169.156V32.3031H170.583V33.546H170.678C170.853 33.1416 171.128 32.8168 171.503 32.5716C171.881 32.3263 172.356 32.2037 172.93 32.2037C173.45 32.2037 173.906 32.313 174.297 32.5318C174.688 32.7472 174.991 33.0687 175.207 33.4963C175.422 33.9238 175.53 34.4525 175.53 35.0822V39.9395H174.043V35.2612C174.043 34.7077 173.899 34.2752 173.611 33.9636C173.322 33.6487 172.926 33.4913 172.423 33.4913C172.078 33.4913 171.771 33.5659 171.503 33.715C171.238 33.8642 171.027 34.0829 170.872 34.3713C170.719 34.6563 170.643 35.001 170.643 35.4054ZM181.362 32.3031V33.4963H177.191V32.3031H181.362ZM178.309 30.4735H179.796V37.6973C179.796 37.9856 179.839 38.2027 179.925 38.3485C180.011 38.4911 180.122 38.5888 180.258 38.6419C180.397 38.6916 180.548 38.7164 180.71 38.7164C180.83 38.7164 180.934 38.7082 181.024 38.6916C181.113 38.675 181.183 38.6618 181.232 38.6518L181.501 39.8798C181.415 39.9129 181.292 39.9461 181.133 39.9792C180.974 40.0157 180.775 40.0356 180.536 40.0389C180.145 40.0455 179.781 39.9759 179.443 39.8301C179.105 39.6842 178.831 39.4589 178.622 39.1539C178.414 38.849 178.309 38.4662 178.309 38.0055V30.4735ZM188.879 34.1674L187.532 34.4061C187.475 34.2337 187.386 34.0697 187.263 33.9139C187.144 33.7581 186.981 33.6305 186.776 33.5311C186.57 33.4316 186.314 33.3819 186.005 33.3819C185.584 33.3819 185.233 33.4764 184.951 33.6653C184.67 33.8509 184.529 34.0912 184.529 34.3862C184.529 34.6414 184.623 34.8469 184.812 35.0027C185.001 35.1584 185.306 35.286 185.727 35.3855L186.94 35.6639C187.643 35.8263 188.166 36.0765 188.511 36.4146C188.856 36.7527 189.028 37.1918 189.028 37.7321C189.028 38.1895 188.895 38.5971 188.63 38.9551C188.368 39.3097 188.002 39.5881 187.532 39.7903C187.064 39.9925 186.522 40.0936 185.906 40.0936C185.051 40.0936 184.353 39.9113 183.813 39.5467C183.273 39.1788 182.941 38.6568 182.819 37.9806L184.255 37.7619C184.345 38.1364 184.529 38.4198 184.807 38.612C185.086 38.801 185.448 38.8954 185.896 38.8954C186.383 38.8954 186.773 38.7943 187.064 38.5922C187.356 38.3867 187.502 38.1364 187.502 37.8414C187.502 37.6028 187.412 37.4023 187.233 37.2399C187.058 37.0775 186.788 36.9548 186.423 36.872L185.13 36.5886C184.418 36.4262 183.891 36.1677 183.549 35.813C183.211 35.4584 183.042 35.0093 183.042 34.4657C183.042 34.015 183.168 33.6206 183.42 33.2825C183.672 32.9444 184.02 32.6809 184.464 32.492C184.908 32.2998 185.417 32.2037 185.99 32.2037C186.816 32.2037 187.465 32.3826 187.939 32.7406C188.413 33.0952 188.726 33.5708 188.879 34.1674Z" fill="#1C1C1C"/>
<defs>
<clipPath id="clip0_2054_3850">
<rect width="350.193" height="244" fill="white"/>
</clipPath>
<clipPath id="clip1_2054_3850">
<rect width="124.027" height="16.2126" fill="white" transform="translate(25.9414 85.9277)"/>
</clipPath>
<clipPath id="clip2_2054_3850">
<rect width="286.153" height="16.2126" fill="white" transform="translate(25.9414 121.594)"/>
</clipPath>
<clipPath id="clip3_2054_3850">
<rect width="188.877" height="16.2126" fill="white" transform="translate(25.9414 157.262)"/>
</clipPath>
</defs>
</svg>
